<?xml version="1.0" encoding="UTF-8" standalone="no"?>
<!-- Created with Inkscape (http://www.inkscape.org/) -->

<svg
   width="209.0433mm"
   height="33.734371mm"
   viewBox="0 0 209.0433 33.734371"
   version="1.1"
   id="svg5"
   sodipodi:docname="lettering-v4-negative.svg"
   inkscape:version="1.1.2 (0a00cf5339, 2022-02-04)"
   xmlns:inkscape="http://www.inkscape.org/namespaces/inkscape"
   xmlns:sodipodi="http://sodipodi.sourceforge.net/DTD/sodipodi-0.dtd"
   xmlns="http://www.w3.org/2000/svg"
   xmlns:svg="http://www.w3.org/2000/svg">
  <sodipodi:namedview
     id="namedview7"
     pagecolor="#505050"
     bordercolor="#eeeeee"
     borderopacity="1"
     inkscape:pageshadow="0"
     inkscape:pageopacity="0"
     inkscape:pagecheckerboard="0"
     inkscape:document-units="mm"
     showgrid="false"
     fit-margin-top="0"
     fit-margin-left="0"
     fit-margin-right="0"
     fit-margin-bottom="0"
     inkscape:zoom="1.4142136"
     inkscape:cx="451.13411"
     inkscape:cy="21.92031"
     inkscape:window-width="1920"
     inkscape:window-height="1131"
     inkscape:window-x="0"
     inkscape:window-y="32"
     inkscape:window-maximized="1"
     inkscape:current-layer="layer1" />
  <defs
     id="defs2" />
  <g
     inkscape:label="Layer 1"
     inkscape:groupmode="layer"
     id="layer1"
     transform="translate(1.020699,-140.09936)">
    <path
       style="fill:#fdfff7;stroke-width:0.264583;fill-opacity:1"
       d="m 55.708632,163.71342 -7.649122,-10.12031 -0.06967,8.92969 -0.06967,8.92969 h -2.379829 -2.379829 l 0.06824,-15.67657 c 0.06655,-15.28815 0.0809,-15.67656 0.57899,-15.67656 0.362191,0 2.709386,2.90708 8.069792,9.99473 l 7.559045,9.99472 0.06962,-9.00254 0.06962,-9.00253 h 2.510068 2.510067 v 15.5575 c 0,15.77697 -0.02402,16.19249 -0.936606,16.19249 -0.165883,0 -3.743712,-4.55414 -7.95073,-10.12031 z m -41.17998,8.43395 c -0.351769,-0.35177 -15.549351,-29.57788 -15.549351,-29.90259 0,-0.0886 1.13650566,-0.16104 2.5255684,-0.16104 2.2744057,0 2.5835747,0.0595 3.1088537,0.59824 0.320807,0.32903 2.785942,4.90952 5.4780779,10.17885 2.692135,5.26934 4.954323,9.58103 5.027083,9.58154 0.07276,5.2e-4 2.376498,-4.37161 5.119417,-9.71583 2.742918,-5.34422 5.226657,-9.92512 5.519416,-10.17978 0.426616,-0.3711 1.031102,-0.46302 3.044827,-0.46302 2.236735,0 2.493955,0.0484 2.343254,0.44114 -0.581409,1.51513 -15.089108,29.38651 -15.43622,29.65521 -0.543705,0.42087 -0.732565,0.41564 -1.180926,-0.0327 z m 19.375649,-15.11468 v -14.68437 h 2.513542 2.513542 v 14.68437 14.68438 h -2.513542 -2.513542 z m 47.095834,14.52033 c -6.351304,-0.97144 -10.685206,-4.45237 -12.623991,-10.1394 -0.744034,-2.18248 -0.830603,-6.30365 -0.178551,-8.50009 1.400604,-4.71795 4.841986,-8.34852 9.468252,-9.98878 2.618703,-0.92848 6.628342,-0.96714 9.205511,-0.0888 4.4567,1.51897 7.85325,4.88869 9.52743,9.45217 0.83829,2.28501 0.833,6.68544 -0.011,9.16056 -1.50119,4.40233 -5.11687,8.01402 -9.434513,9.4241 -1.581904,0.51663 -4.696151,0.87247 -5.953125,0.68021 z m 4.436973,-5.55481 c 2.903675,-0.93779 5.505968,-3.81353 6.30119,-6.96331 1.631538,-6.46238 -4.369607,-12.83885 -10.940024,-11.62424 -6.921249,1.27946 -10.247913,9.04062 -6.378821,14.88188 2.269106,3.42573 6.979243,5.00993 11.017655,3.70567 z m 19.640112,-6.45197 V 147.3754 h -4.10104 -4.101044 v -2.51354 -2.51354 h 10.715624 10.71563 v 2.51354 2.51354 h -4.10104 -4.10104 v 12.17084 12.17083 h -2.51355 -2.51354 z m 16.66875,2.51354 v -9.65729 h 5.95313 5.95312 v 2.51354 2.51354 h -3.43958 -3.43958 v 4.63021 4.63021 h 8.20208 8.20208 v 2.51354 2.51354 H 132.4616 121.74597 Z m 53.975,9.48356 c 0,-0.34062 15.18026,-29.59568 15.4588,-29.79185 0.15615,-0.10997 0.52204,-0.1695 0.81308,-0.13229 0.53683,0.0686 1.34758,1.57503 12.31845,22.88797 l 3.7113,7.2099 h -2.50313 c -1.37672,0 -2.69073,-0.072 -2.92001,-0.15997 -0.22928,-0.088 -1.1499,-1.57815 -2.04581,-3.31148 l -1.62894,-3.15149 -7.16703,0.0703 -7.16702,0.0703 -1.50214,2.89767 c -0.82618,1.59372 -1.71352,3.05223 -1.97187,3.24114 -0.48587,0.35528 -5.39568,0.50974 -5.39568,0.16975 z m 20.37292,-11.68824 c 0,-0.12117 -0.96699,-2.09728 -2.14888,-4.39137 l -2.14887,-4.17107 -2.21675,4.28501 c -1.21921,2.35675 -2.21675,4.33287 -2.21675,4.39137 0,0.0585 1.96453,0.10636 4.36563,0.10636 2.40109,0 4.36562,-0.0991 4.36562,-0.2203 z m -74.34792,-14.99324 v -2.51354 h 10.71563 10.71562 v 2.51354 2.51354 H 132.4616 121.74597 Z"
       id="path896"
       sodipodi:nodetypes="ccccccssccccccsscccsscccsssccccccccccccccssscscsccssssscccccccccccccccccccccccccccccccccccssscssscccssccsscssssccccccccc" />
    <g
       id="g998"
       style="fill:#fdfff7;fill-opacity:1">
      <path
         d="m 156.81575,171.7637 c -4.10492,-0.61154 -7.48651,-2.67002 -9.86745,-6.0066 -1.75566,-2.46033 -2.48764,-4.64114 -2.64723,-7.8869 -0.11196,-2.2769 -0.0404,-2.9797 0.4829,-4.74238 0.7412,-2.49675 2.55798,-5.38867 4.37002,-6.95614 2.86149,-2.47528 7.29358,-3.95836 10.8199,-3.62059 10.06905,0.96445 16.22569,10.97031 12.47049,20.26724 l -0.64612,1.59963 0.61778,1.39693 c 0.65394,1.47866 1.18825,3.89345 1.18825,5.37019 v 0.88738 l -2.44434,-0.0761 -2.44434,-0.0761 -0.20637,-1.43803 c -0.11349,-0.79092 -0.25593,-1.48761 -0.31653,-1.54821 -0.0606,-0.0606 -0.80255,0.31102 -1.64879,0.82582 -2.73969,1.6667 -6.62253,2.46648 -9.72817,2.00381 z m 5.47334,-5.52831 c 0.77255,-0.28905 1.79411,-0.8546 2.27016,-1.25677 l 0.86552,-0.73123 -1.26805,-0.85168 c -3.30449,-2.21945 -8.2561,-2.04284 -11.18993,0.3991 -0.65586,0.5459 -0.65699,0.55411 -0.13229,0.97055 0.69844,0.55433 2.47805,1.49499 3.30729,1.74815 1.36576,0.41695 4.69171,0.26648 6.1473,-0.27812 z m -11.29619,-7.18215 c 2.21751,-1.49658 4.64334,-2.17994 7.79472,-2.19578 3.17268,-0.016 5.17548,0.52588 7.8118,2.11338 0.84027,0.50599 1.58266,0.86508 1.64977,0.79798 0.38716,-0.38717 0.35299,-3.63448 -0.0529,-5.03084 -1.77906,-6.11975 -8.33257,-8.91826 -13.91583,-5.94241 -2.8682,1.52873 -4.69424,4.30082 -4.95252,7.51834 -0.12185,1.51804 0.0679,3.56786 0.33033,3.56786 0.0589,0 0.65947,-0.37284 1.33467,-0.82853 z"
         style="fill:#fdfff7;stroke-width:0.0700042;fill-opacity:1"
         id="path1572" />
    </g>
  </g>
</svg>
